<svg version="1.1" xmlns="http://www.w3.org/2000/svg" viewBox="-8.364434263713914 -14.112786404004027 16.72886852742783 25.84766495348655" fill="none" stroke="black" stroke-width="0.6%" vector-effect="non-scaling-stroke">
    <path d="M 7.36443 -4.00956 L 7.36443 -6.56097 L 4.91158 -12.01951 L -2.45285 -13.11279 L -7.36443 -8.74753 L -4.91158 -3.28899 L 2.45285 -2.19571 L 7.36443 -6.56097" />
    <path d="M 2.45285 0.3557 L 2.45285 -2.19571" />
    <path d="M 2.45285 0.3557 L 7.36443 -4.00956" />
    <path d="M -7.36443 -6.19611 L -4.91158 -0.73757 L -4.91158 -3.28899" />
    <path d="M -4.91158 -0.73757 L 2.45285 0.3557" />
    <path d="M -7.36443 -6.19611 L -7.36443 -8.74753" />
    <path d="M 3.02294 9.67168 A 4 3.08063 180 0 0 4 7.65425 L 4 -1.01935" />
    <path d="M -4 7.65425 A 4 3.08063 180 0 0 3.02294 9.67168" />
    <path d="M -4 7.65425 L -4 -0.60224" />
</svg>